<svg id="图层_1" xmlns="http://www.w3.org/2000/svg" xmlns:xlink="http://www.w3.org/1999/xlink" width="800" height="800" viewBox="0 0 800 800" enable-background="new 0 0 800 800"><g><path fill="#00a0ff" d="M282.639 281.223c-2.473-1.861-5.034-3.52-7.664-4.983-1.904-1.059-4.295-.564-5.604 1.177l-16.492 21.912-1.176 1.563c-1.786 2.373-4.638 3.665-7.605 3.529-1.082-.049-2.164-.039-3.242.029-8.289.525-16.308 4.525-21.694 11.681-4.33 5.753-6.229 12.576-5.879 19.245.063 1.201.757 2.298 1.851 2.796 2.27 1.032 4.017 3.137 4.454 5.83.618 3.809-1.722 7.551-5.418 8.659-4.357 1.306-8.832-1.363-9.814-5.724-.532-2.362.079-4.711 1.463-6.48.768-.981 1.154-2.203 1.044-3.444-.758-8.552 1.52-17.402 7.09-24.802 7.026-9.334 17.717-14.274 28.562-14.337 2.09-.012 4.052-1.011 5.309-2.681l15.188-20.178c1.189-1.579.421-3.848-1.476-4.405-25.43-7.46-53.905.934-70.96 23.146-22.099 28.781-16.729 70.279 11.987 92.462 2.687 2.076 5.482 3.909 8.36 5.508 1.893 1.052 4.274.537 5.577-1.193l16.492-21.911 1.176-1.563c1.786-2.373 4.638-3.665 7.605-3.529 1.082.049 2.164.039 3.242-.029 8.289-.525 16.308-4.525 21.694-11.681 4.33-5.753 6.229-12.576 5.879-19.245-.063-1.201-.757-2.298-1.851-2.796-2.27-1.032-4.017-3.137-4.454-5.83-.618-3.809 1.722-7.551 5.418-8.658 4.357-1.306 8.832 1.363 9.814 5.724.532 2.362-.079 4.711-1.463 6.48-.768.981-1.154 2.203-1.044 3.444.758 8.552-1.52 17.402-7.09 24.802-7.026 9.334-17.717 14.274-28.562 14.337-2.09.012-4.052 1.011-5.309 2.681l-15.187 20.177c-1.18 1.568-.439 3.842 1.444 4.396 25.633 7.534 54.368-1.045 71.384-23.652C317.614 344.545 311.773 303.151 282.639 281.223z"/><g><path fill="#00a0ff" d="M391.613 299.257l-.001-1.567c-.001-1.133-.92-2.052-2.053-2.052h-51.424c-1.134.0-2.053.919-2.053 2.053v3.137c0 1.134.919 2.053 2.053 2.053h43.629c1.255.0 2.221 1.107 2.034 2.348-1.224 8.113-5.061 23.285-17.051 37.854-.847 1.029-2.419 1.011-3.241-.039-10.032-12.828-13.119-25.98-13.962-30.826-.184-1.061-1.166-1.792-2.237-1.678l-1.643.174-1.449.151c-1.188.124-2.026 1.228-1.808 2.403 1.028 5.558 4.773 20.841 16.549 35.388.683.843.625 2.076-.175 2.81-14.336 13.149-27.229 16.031-31.841 16.657-1.027.14-1.794 1.009-1.789 2.046l.015 3.169c.006 1.22 1.065 2.174 2.276 2.032 5.484-.645 20.116-3.743 36.284-18.613.799-.734 2.014-.734 2.81.003 7.813 7.235 17.799 14.211 31.266 18.495 1.091.347 2.259-.287 2.582-1.385l.887-3.007c.318-1.078-.297-2.198-1.367-2.539-12.252-3.908-21.285-10.2-28.378-16.651-.818-.744-.859-2.006-.141-2.846C391.369 325.431 391.615 300.395 391.613 299.257z"/><path fill="#00a0ff" d="M427.31 292.355h-3.137c-1.134.0-2.053.919-2.053 2.053v10.999c0 1.134-.919 2.053-2.053 2.053h-7.379c-1.134.0-2.053.919-2.053 2.053v3.137c0 1.134.919 2.053 2.053 2.053h7.379c1.134.0 2.053.919 2.053 2.053v15.933c0 1.134-.919 2.053-2.053 2.053h-7.379c-1.134.0-2.053.919-2.053 2.053v3.137c0 1.134.919 2.053 2.053 2.053h7.379c1.134.0 2.053.919 2.053 2.053v15.065c0 3.27-1.307 8.606-9.648 9.31-1.078.091-1.921.965-1.921 2.047v3.125c0 1.196 1.017 2.157 2.209 2.055 8.099-.693 16.603-5.292 16.603-16.537v-15.065c0-1.134.919-2.053 2.053-2.053h6.557c1.134.0 2.053-.919 2.053-2.053v-3.137c0-1.134-.919-2.053-2.053-2.053h-6.557c-1.134.0-2.053-.919-2.053-2.053v-15.933c0-1.134.919-2.053 2.053-2.053h6.557c1.134.0 2.053-.919 2.053-2.053v-3.137c0-1.134-.919-2.053-2.053-2.053h-6.557c-1.134.0-2.053-.919-2.053-2.053v-10.999C429.363 293.274 428.444 292.355 427.31 292.355z"/><path fill="#00a0ff" d="M443.648 373.092c0 1.134.919 2.053 2.053 2.053h23.138c10.239.0 18.569-7.94 18.569-17.7v-48.63c0-1.134-.919-2.053-2.053-2.053h-39.654c-1.134.0-2.053.919-2.053 2.053v64.277zm25.191-5.19h-15.895c-1.134.0-2.053-.919-2.053-2.053v-21.81c0-1.134.919-2.053 2.053-2.053h25.167c1.134.0 2.053.919 2.053 2.053v13.406C480.165 363.211 475.084 367.902 468.839 367.902zm11.326-51.843v16.631c0 1.134-.919 2.053-2.053 2.053h-25.167c-1.134.0-2.053-.919-2.053-2.053v-16.631c0-1.134.919-2.053 2.053-2.053h25.167C479.246 314.006 480.165 314.925 480.165 316.059z"/><path fill="#00a0ff" d="M475.171 292.301h-20.44c-1.134.0-2.053.919-2.053 2.053v3.137c0 1.134.919 2.053 2.053 2.053h20.44c1.134.0 2.053-.919 2.053-2.053v-3.137C477.224 293.22 476.305 292.301 475.171 292.301z"/><path fill="#00a0ff" d="M553.303 295.487H510.73c-1.134.0-2.053.919-2.053 2.053v3.137c0 1.134.919 2.053 2.053 2.053h42.573c1.134.0 2.053-.919 2.053-2.053v-3.137C555.356 296.406 554.437 295.487 553.303 295.487z"/><path fill="#00a0ff" d="M535.11 331.8h29.657c1.134.0 2.053-.919 2.053-2.053v-3.137c0-1.134-.919-2.053-2.053-2.053h-65.51c-1.134.0-2.053.919-2.053 2.053v3.137c0 1.134.919 2.053 2.053 2.053h20.274c1.638.0 2.617 1.824 1.711 3.189l-13.492 24.343c-.363.545-.632 1.08-.821 1.633-1.129 3.299-.601 6.838 1.451 9.71 2.15 3.01 5.706 4.806 9.509 4.806h36.976c1.662.0 3.181-.829 4.061-2.218.863-1.359.969-3.039.283-4.495l-8.586-16.643c-.52-1.008-1.759-1.403-2.766-.883l-2.788 1.439c-1.008.52-1.403 1.758-.883 2.766l5.055 9.796c.705 1.367-.287 2.995-1.825 2.995h-29.528c-1.492.0-2.81-.647-3.616-1.775-.367-.512-.899-1.53-.589-2.798.052-.212.157-.413.278-.596l16.397-28.72C531.416 332.757 533.199 331.8 535.11 331.8z"/></g></g></svg>